<svg width="106" height="19" viewBox="0 0 106 19" fill="none" xmlns="http://www.w3.org/2000/svg">
<path d="M7.408 18H0.0640001V1.224H6.592C7.728 1.224 8.704 1.36 9.52 1.632C10.352 1.904 10.976 2.272 11.392 2.736C12.144 3.6 12.52 4.576 12.52 5.664C12.52 6.976 12.096 7.952 11.248 8.592C10.96 8.816 10.76 8.96 10.648 9.024C10.536 9.072 10.336 9.16 10.048 9.288C11.088 9.512 11.912 9.984 12.52 10.704C13.144 11.408 13.456 12.288 13.456 13.344C13.456 14.512 13.056 15.544 12.256 16.44C11.328 17.48 9.712 18 7.408 18ZM3.808 8.016H5.584C6.624 8.016 7.392 7.904 7.888 7.68C8.4 7.456 8.656 6.976 8.656 6.24C8.656 5.488 8.424 4.992 7.96 4.752C7.496 4.512 6.712 4.392 5.608 4.392H3.808V8.016ZM3.808 14.832H6.376C7.448 14.832 8.248 14.704 8.776 14.448C9.32 14.176 9.592 13.656 9.592 12.888C9.592 12.104 9.304 11.592 8.728 11.352C8.168 11.096 7.264 10.968 6.016 10.968H3.808V14.832ZM23.1429 8.256C22.0709 8.256 21.2709 8.64 20.7429 9.408C20.2149 10.16 19.9509 11.16 19.9509 12.408V18H16.3509V5.088H19.9509V6.792C20.4149 6.264 20.9909 5.816 21.6789 5.448C22.3829 5.08 23.0949 4.888 23.8149 4.872L23.8389 8.256H23.1429ZM29.0106 11.544C29.0106 12.6 29.3066 13.464 29.8986 14.136C30.5066 14.792 31.2746 15.12 32.2026 15.12C33.1466 15.12 33.9146 14.792 34.5066 14.136C35.1146 13.464 35.4186 12.6 35.4186 11.544C35.4186 10.488 35.1146 9.624 34.5066 8.952C33.9146 8.28 33.1466 7.944 32.2026 7.944C31.2746 7.944 30.5066 8.28 29.8986 8.952C29.3066 9.624 29.0106 10.488 29.0106 11.544ZM39.0426 11.544C39.0426 13.416 38.3946 14.992 37.0986 16.272C35.8026 17.552 34.1706 18.192 32.2026 18.192C30.2506 18.192 28.6266 17.552 27.3306 16.272C26.0346 14.992 25.3866 13.416 25.3866 11.544C25.3866 9.672 26.0346 8.096 27.3306 6.816C28.6266 5.52 30.2506 4.872 32.2026 4.872C34.1706 4.872 35.8026 5.52 37.0986 6.816C38.3946 8.096 39.0426 9.672 39.0426 11.544ZM45.4165 18H41.8165V0.191999H45.4165V9.336L49.4245 5.064H53.9605L49.0405 10.296L54.1525 18H49.8805L46.5925 13.056L45.4165 14.28V18ZM67.3739 16.128C65.9179 17.504 64.2059 18.192 62.2379 18.192C60.2859 18.192 58.6699 17.592 57.3899 16.392C56.1099 15.176 55.4699 13.552 55.4699 11.52C55.4699 9.488 56.1179 7.872 57.4139 6.672C58.7259 5.472 60.2699 4.872 62.0459 4.872C63.8219 4.872 65.3259 5.408 66.5579 6.48C67.8059 7.552 68.4299 9.024 68.4299 10.896V12.816H59.0219C59.1339 13.52 59.5019 14.096 60.1259 14.544C60.7499 14.992 61.4539 15.216 62.2379 15.216C63.5019 15.216 64.5419 14.792 65.3579 13.944L67.3739 16.128ZM64.7819 10.248C64.7019 9.48 64.4139 8.888 63.9179 8.472C63.4219 8.056 62.8139 7.848 62.0939 7.848C61.3899 7.848 60.7419 8.064 60.1499 8.496C59.5579 8.928 59.2139 9.512 59.1179 10.248H64.7819ZM77.9179 8.256C76.8459 8.256 76.0459 8.64 75.5179 9.408C74.9899 10.16 74.7259 11.16 74.7259 12.408V18H71.1259V5.088H74.7259V6.792C75.1899 6.264 75.7659 5.816 76.4539 5.448C77.1579 5.08 77.8699 4.888 78.5899 4.872L78.6139 8.256H77.9179ZM90.7193 13.992C90.7193 15.256 90.2473 16.272 89.3033 17.04C88.3753 17.808 87.1913 18.192 85.7513 18.192C84.7913 18.192 83.7913 18.024 82.7513 17.688C81.7113 17.336 80.7753 16.824 79.9433 16.152L81.5273 13.896C82.8713 14.936 84.3033 15.456 85.8233 15.456C86.2873 15.456 86.6553 15.368 86.9273 15.192C87.1993 15 87.3353 14.752 87.3353 14.448C87.3353 14.144 87.1433 13.864 86.7593 13.608C86.3913 13.352 85.8473 13.112 85.1273 12.888C84.4233 12.664 83.8793 12.472 83.4953 12.312C83.1273 12.152 82.7033 11.92 82.2233 11.616C81.2473 11.008 80.7593 10.112 80.7593 8.928C80.7593 7.728 81.2393 6.752 82.1993 6C83.1593 5.248 84.3993 4.872 85.9193 4.872C87.4393 4.872 88.9593 5.384 90.4793 6.408L89.1353 8.808C88.0153 8.04 86.8953 7.656 85.7753 7.656C84.6713 7.656 84.1193 7.96 84.1193 8.568C84.1193 8.904 84.2953 9.168 84.6473 9.36C84.9993 9.552 85.5833 9.776 86.3993 10.032C87.2153 10.288 87.7913 10.488 88.1273 10.632C88.4793 10.76 88.8953 10.968 89.3753 11.256C90.2713 11.8 90.7193 12.712 90.7193 13.992ZM104.752 16.128C103.296 17.504 101.584 18.192 99.6161 18.192C97.6641 18.192 96.0481 17.592 94.7681 16.392C93.4881 15.176 92.8481 13.552 92.8481 11.52C92.8481 9.488 93.4961 7.872 94.7921 6.672C96.1041 5.472 97.6481 4.872 99.4241 4.872C101.2 4.872 102.704 5.408 103.936 6.48C105.184 7.552 105.808 9.024 105.808 10.896V12.816H96.4001C96.5121 13.52 96.8801 14.096 97.5041 14.544C98.1281 14.992 98.8321 15.216 99.6161 15.216C100.88 15.216 101.92 14.792 102.736 13.944L104.752 16.128ZM102.16 10.248C102.08 9.48 101.792 8.888 101.296 8.472C100.8 8.056 100.192 7.848 99.4721 7.848C98.7681 7.848 98.1201 8.064 97.5281 8.496C96.9361 8.928 96.5921 9.512 96.4961 10.248H102.16Z" fill="white"/>
</svg>
